<?xml version="1.0" encoding="UTF-8"?>
<svg width="50px" height="43px" viewBox="0 0 50 43" version="1.1" xmlns="http://www.w3.org/2000/svg" xmlns:xlink="http://www.w3.org/1999/xlink">
    <!-- Generator: Sketch 52.5 (67469) - http://www.bohemiancoding.com/sketch -->
    <title>“ copy</title>
    <desc>Created with Sketch.</desc>
    <g id="CaseStudies" stroke="none" stroke-width="1" fill="none" fill-rule="evenodd" fill-opacity="0.2">
        <g id="Desktop-HD" transform="translate(-361.000000, -446.000000)" fill="#000000">
            <path d="M372.463415,488.746341 C368.642257,488.746341 365.776432,487.343916 363.865854,484.539024 C361.955275,481.734132 361,477.811407 361,472.770732 C361,466.998345 362.42275,461.917095 365.268293,457.526829 C368.113835,453.136563 372.463385,449.518713 378.317073,446.673171 L382.219512,454.478049 C378.560957,456.347977 375.817082,458.482102 373.987805,460.880488 C372.158527,463.278874 371.243902,466.307299 371.243902,469.965854 C371.487806,469.884552 371.894306,469.843902 372.463415,469.843902 C375.065054,469.843902 377.280479,470.636577 379.109756,472.221951 C380.939034,473.807325 381.853659,475.9821 381.853659,478.746341 C381.853659,481.835788 380.959359,484.274788 379.170732,486.063415 C377.382105,487.852041 375.146355,488.746341 372.463415,488.746341 Z M401.243902,488.746341 C397.422745,488.746341 394.55692,487.343916 392.646341,484.539024 C390.735763,481.734132 389.780488,477.811407 389.780488,472.770732 C389.780488,466.998345 391.203238,461.917095 394.04878,457.526829 C396.894323,453.136563 401.243873,449.518713 407.097561,446.673171 L411,454.478049 C407.341445,456.347977 404.59757,458.482102 402.768293,460.880488 C400.939015,463.278874 400.02439,466.307299 400.02439,469.965854 C400.268294,469.884552 400.674794,469.843902 401.243902,469.843902 C403.845541,469.843902 406.060966,470.636577 407.890244,472.221951 C409.719521,473.807325 410.634146,475.9821 410.634146,478.746341 C410.634146,481.835788 409.739846,484.274788 407.95122,486.063415 C406.162593,487.852041 403.926843,488.746341 401.243902,488.746341 Z" id="“-copy" transform="translate(386.000000, 467.709756) scale(-1, -1) translate(-386.000000, -467.709756) "></path>
        </g>
    </g>
</svg>