<?xml version="1.0" encoding="UTF-8"?>
<svg width="110px" height="89px" viewBox="0 0 106 89" version="1.1" xmlns="http://www.w3.org/2000/svg" xmlns:xlink="http://www.w3.org/1999/xlink">
    <!-- Generator: Sketch 52.5 (67469) - http://www.bohemiancoding.com/sketch -->
    <title>quote-closed</title>
    <desc>Created with Sketch.</desc>
    <g id="quote-closed" stroke="none" stroke-width="1" fill="none" fill-rule="evenodd">
        <path d="M24.5153613,88.9820826 C16.4341171,88.9820826 10.3732748,86.0231264 6.33265275,80.1051252 C2.29203065,74.187124 0.27174991,65.9106233 0.27174991,55.2753747 C0.27174991,43.0962998 3.28067868,32.375444 9.29862648,23.1124856 C15.3165743,13.8495272 24.5152994,6.21627782 36.8950777,0.212508489 L45.148222,16.6799077 C37.4108605,20.6252419 31.6079265,25.1280013 27.7392457,30.1883212 C23.870565,35.2486411 21.9362537,41.6382711 21.9362537,49.3574031 C22.4520778,49.1858669 23.3117717,49.1001 24.5153613,49.1001 C30.017485,49.1001 34.7028169,50.7725535 38.5714976,54.1175107 C42.4401784,57.4624679 44.3744897,62.0509942 44.3744897,67.8832273 C44.3744897,74.4016054 42.4831631,79.5476162 38.700453,83.3214141 C34.917743,87.095212 30.1894263,88.9820826 24.5153613,88.9820826 Z M85.3823004,88.9820826 C77.3010562,88.9820826 71.240214,86.0231264 67.1995919,80.1051252 C63.1589698,74.187124 61.138689,65.9106233 61.138689,55.2753747 C61.138689,43.0962998 64.1476178,32.375444 70.1655656,23.1124856 C76.1835134,13.8495272 85.3822385,6.21627782 97.7620168,0.212508489 L106.015161,16.6799077 C98.2777997,20.6252419 92.4748656,25.1280013 88.6061849,30.1883212 C84.7375041,35.2486411 82.8031928,41.6382711 82.8031928,49.3574031 C83.3190169,49.1858669 84.1787108,49.1001 85.3823004,49.1001 C90.8844241,49.1001 95.569756,50.7725535 99.4384368,54.1175107 C103.307117,57.4624679 105.241429,62.0509942 105.241429,67.8832273 C105.241429,74.4016054 103.350102,79.5476162 99.5673921,83.3214141 C95.7846821,87.095212 91.0563655,88.9820826 85.3823004,88.9820826 Z" id="“”" fill="#5B5B5B" transform="translate(53.143456, 44.597296) scale(-1, -1) translate(-53.143456, -44.597296) "></path>
    </g>
</svg>