<?xml version="1.0" encoding="UTF-8"?>
<svg width="110px" height="89px" viewBox="0 0 110 89" version="1.1" xmlns="http://www.w3.org/2000/svg" xmlns:xlink="http://www.w3.org/1999/xlink">
    <!-- Generator: Sketch 52.5 (67469) - http://www.bohemiancoding.com/sketch -->
    <title>quote-open</title>
    <desc>Created with Sketch.</desc>
    <g id="quote-open" stroke="none" stroke-width="1" fill="none" fill-rule="evenodd">
        <path d="M28.4070953,88.9820826 C20.3258511,88.9820826 14.2650089,86.0231264 10.2243868,80.1051252 C6.18376473,74.187124 4.16348399,65.9106233 4.16348399,55.2753747 C4.16348399,43.0962998 7.17241275,32.375444 13.1903606,23.1124856 C19.2083084,13.8495272 28.4070334,6.21627782 40.7868118,0.212508489 L49.0399561,16.6799077 C41.3025946,20.6252419 35.4996606,25.1280013 31.6309798,30.1883212 C27.7622991,35.2486411 25.8279877,41.6382711 25.8279877,49.3574031 C26.3438118,49.1858669 27.2035058,49.1001 28.4070953,49.1001 C33.909219,49.1001 38.594551,50.7725535 42.4632317,54.1175107 C46.3319124,57.4624679 48.2662238,62.0509942 48.2662238,67.8832273 C48.2662238,74.4016054 46.3748971,79.5476162 42.5921871,83.3214141 C38.809477,87.095212 34.0811604,88.9820826 28.4070953,88.9820826 Z M89.2740345,88.9820826 C81.1927903,88.9820826 75.131948,86.0231264 71.091326,80.1051252 C67.0507039,74.187124 65.0304231,65.9106233 65.0304231,55.2753747 C65.0304231,43.0962998 68.0393519,32.375444 74.0572997,23.1124856 C80.0752475,13.8495272 89.2739726,6.21627782 101.653751,0.212508489 L109.906895,16.6799077 C102.169534,20.6252419 96.3665997,25.1280013 92.497919,30.1883212 C88.6292382,35.2486411 86.6949269,41.6382711 86.6949269,49.3574031 C87.210751,49.1858669 88.0704449,49.1001 89.2740345,49.1001 C94.7761582,49.1001 99.4614901,50.7725535 103.330171,54.1175107 C107.198852,57.4624679 109.133163,62.0509942 109.133163,67.8832273 C109.133163,74.4016054 107.241836,79.5476162 103.459126,83.3214141 C99.6764162,87.095212 94.9480995,88.9820826 89.2740345,88.9820826 Z" id="“”" fill="#5B5B5B"></path>
    </g>
</svg>