<?xml version="1.0" encoding="UTF-8"?>
<svg width="50px" height="43px" viewBox="0 0 50 43" version="1.1" xmlns="http://www.w3.org/2000/svg" xmlns:xlink="http://www.w3.org/1999/xlink">
    <!-- Generator: Sketch 52.5 (67469) - http://www.bohemiancoding.com/sketch -->
    <title>“</title>
    <desc>Created with Sketch.</desc>
    <g id="CaseStudies" stroke="none" stroke-width="1" fill="none" fill-rule="evenodd" fill-opacity="0.2">
        <g id="Desktop-HD" transform="translate(-361.000000, -404.000000)" fill="#000000">
            <path d="M372.463415,446.673171 C368.642257,446.673171 365.776432,445.270746 363.865854,442.465854 C361.955275,439.660962 361,435.738237 361,430.697561 C361,424.925174 362.42275,419.843924 365.268293,415.453659 C368.113835,411.063393 372.463385,407.445543 378.317073,404.6 L382.219512,412.404878 C378.560957,414.274806 375.817082,416.408931 373.987805,418.807317 C372.158527,421.205703 371.243902,424.234128 371.243902,427.892683 C371.487806,427.811382 371.894306,427.770732 372.463415,427.770732 C375.065054,427.770732 377.280479,428.563407 379.109756,430.14878 C380.939034,431.734154 381.853659,433.908929 381.853659,436.673171 C381.853659,439.762617 380.959359,442.201617 379.170732,443.990244 C377.382105,445.778871 375.146355,446.673171 372.463415,446.673171 Z M401.243902,446.673171 C397.422745,446.673171 394.55692,445.270746 392.646341,442.465854 C390.735763,439.660962 389.780488,435.738237 389.780488,430.697561 C389.780488,424.925174 391.203238,419.843924 394.04878,415.453659 C396.894323,411.063393 401.243873,407.445543 407.097561,404.6 L411,412.404878 C407.341445,414.274806 404.59757,416.408931 402.768293,418.807317 C400.939015,421.205703 400.02439,424.234128 400.02439,427.892683 C400.268294,427.811382 400.674794,427.770732 401.243902,427.770732 C403.845541,427.770732 406.060966,428.563407 407.890244,430.14878 C409.719521,431.734154 410.634146,433.908929 410.634146,436.673171 C410.634146,439.762617 409.739846,442.201617 407.95122,443.990244 C406.162593,445.778871 403.926843,446.673171 401.243902,446.673171 Z" id="“"></path>
        </g>
    </g>
</svg>